<?xml version="1.0" encoding="utf-8"?>
<!-- Generator: Adobe Illustrator 26.5.0, SVG Export Plug-In . SVG Version: 6.00 Build 0)  -->
<svg version="1.1" id="Layer_1" xmlns="http://www.w3.org/2000/svg" xmlns:xlink="http://www.w3.org/1999/xlink" x="0px" y="0px"
	 viewBox="0 0 1764.4 302.8" style="enable-background:new 0 0 1764.4 302.8;" xml:space="preserve">
<g>
	<polygon style="fill:#FCC221;" points="93.4,302.8 93.4,99.1 149.4,68.2 149.4,273.7 	"/>
	<polygon style="fill:#FCC221;" points="187.8,113.2 187.8,245.9 243.7,216.8 243.7,82.5 	"/>
	<polygon style="fill:#FCC221;" points="55.9,11.3 0,42.2 0,245.9 55.9,216.8 	"/>
	<polygon style="fill:#FCC221;" points="70.2,93.8 149.2,49.3 149.9,0 70.2,46 	"/>
	<polygon style="fill:#FCC221;" points="187.7,94.4 243.8,62.1 243.8,12.8 187.7,49.2 	"/>
</g>
<g>
	<g>
		<path style="fill:#FFFFFF;" d="M919.6,234.2v-81.7c0-5.5-1.9-10.2-5.6-14.1c-3.7-3.9-8.3-5.8-13.7-5.8h-34.5v101.6h-22.6V132.6
			h-31.8c-5.4,0-9.9,1.9-13.7,5.8c-3.7,3.9-5.6,8.6-5.6,14.1v81.7h-22.6v-81.7c0-12.6,4-23,12-31.3c8-8.3,18-12.4,30-12.4h88.8
			c12.1,0,22.1,4.4,30,13.3c8,8.9,12,19.6,12,32.2v80L919.6,234.2L919.6,234.2z"/>
		<path style="fill:#FFFFFF;" d="M1070.1,234.1h-53.6c-11.9,0-21.7-4.3-29.3-12.8c-7.6-8.5-11.4-19.1-11.4-31.6v-39.2
			c0-12.7,3.8-23.1,11.3-31.1s17.3-12.1,29.4-12.1h52.6c11.9,0,21.7,4.1,29.3,12.2c7.6,8.1,11.4,18.5,11.4,31v39.2
			c0,12.1-3.5,22.3-10.6,30.9C1091.7,229.5,1082,234.1,1070.1,234.1L1070.1,234.1z M1087.2,153.2c0-5.8-1.7-10.9-4.9-15.4
			c-3.3-4.4-7.6-6.6-13-6.6h-52.9c-5.4,0-9.7,2.2-13,6.6c-3.3,4.4-4.9,9.5-4.9,15.4v35.2c0,5.8,1.6,10.9,4.9,15.2s7.6,6.5,13,6.5
			h52.9c5.4,0,9.7-2.2,13-6.5s4.9-9.4,4.9-15.2V153.2z"/>
		<path style="fill:#FFFFFF;" d="M1181.5,233.6c-10.9,0-19.9-4.3-27-12.8s-10.7-19.1-10.7-31.7V65.3h21.1v42.2h32.7v23.9h-32.7v56.4
			c0,5.9,1.6,10.9,4.7,15.3c3.1,4.4,7.1,6.5,11.9,6.5h16.8v23.9L1181.5,233.6L1181.5,233.6z"/>
		<g>
			<rect x="1231.8" y="75.9" style="fill:#FCC221;" width="23.9" height="23.4"/>
			<rect x="1231.8" y="110.3" style="fill:#FFFFFF;" width="23.9" height="124"/>
		</g>
		<path style="fill:#FFFFFF;" d="M1381.6,232.9H1328c-11.9,0-21.7-4.3-29.3-12.8c-7.6-8.5-11.4-19.1-11.4-31.6v-39.2
			c0-12.7,3.8-23.1,11.3-31.1s17.3-12.1,29.4-12.1h52.6c11.9,0,21.7,4.1,29.3,12.2c7.6,8.1,11.4,18.5,11.4,31v39.2
			c0,12.1-3.5,22.3-10.6,30.9C1403.2,228.4,1393.5,232.9,1381.6,232.9L1381.6,232.9z M1398.7,152c0-5.8-1.7-10.9-4.9-15.4
			c-3.3-4.4-7.6-6.6-13-6.6h-52.9c-5.4,0-9.7,2.2-13,6.6c-3.3,4.4-4.9,9.5-4.9,15.4v35.2c0,5.8,1.6,10.9,4.9,15.2s7.6,6.5,13,6.5
			h52.9c5.4,0,9.7-2.2,13-6.5s4.9-9.4,4.9-15.2V152z"/>
		<path style="fill:#FFFFFF;" d="M1566.5,233.6v-81.7c0-5.5-1.8-10.2-5.4-14.1c-3.6-3.9-8.1-5.8-13.5-5.8h-51.1
			c-5.4,0-9.8,1.9-13.5,5.8c-3.6,3.9-5.4,8.6-5.4,14.1v81.7h-22.6v-81.7c0-12.6,3.9-23,11.8-31.3s17.8-12.4,29.7-12.4h51.1
			c11.9,0,21.8,4.4,29.7,13.3c7.9,8.9,11.8,19.6,11.8,32.2v80L1566.5,233.6L1566.5,233.6z"/>
		<path style="fill:#FFFFFF;" d="M1630.1,234.9l-6.9,2.6v-25L1723,132h-99.8v-24.4h141.2v22.1l-98.9,80.8h98.9v24.4L1630.1,234.9
			L1630.1,234.9z"/>
	</g>
	<g>
		<path style="fill:#FFFFFF;" d="M456.7,233.5v-81.7c0-5.5-1.9-10.2-5.6-14.1c-3.7-3.9-8.3-5.8-13.7-5.8h-34.5v101.6h-22.6V131.9
			h-31.9c-5.4,0-9.9,1.9-13.6,5.8c-3.7,3.9-5.6,8.6-5.6,14.1v81.7h-22.6v-81.7c0-12.6,4-23,12-31.3c8-8.3,18-12.4,30-12.4h88.8
			c12.1,0,22.1,4.4,30,13.3s12,19.6,12,32.2v80L456.7,233.5L456.7,233.5z"/>
		<g>
			<rect x="512.7" y="76.1" style="fill:#FCC221;" width="23.9" height="23.4"/>
			<rect x="512.7" y="110.6" style="fill:#FFFFFF;" width="23.9" height="124"/>
		</g>
		<g>
			<rect x="681.6" y="76.2" style="fill:#FCC221;" width="23.9" height="23.4"/>
			<rect x="681.6" y="110.6" style="fill:#FFFFFF;" width="23.9" height="124"/>
		</g>
		<rect x="572.6" y="66.9" style="fill:#FFFFFF;" width="23.9" height="168.1"/>
		<rect x="628" y="66.7" style="fill:#FFFFFF;" width="23.9" height="168.1"/>
	</g>
</g>
</svg>
