<?xml version="1.0" encoding="UTF-8"?>
<svg id="Layer_1" data-name="Layer 1" xmlns="http://www.w3.org/2000/svg" viewBox="0 0 1855.57 302.8">
  <g>
    <polygon points="93.45 302.8 93.45 99.08 149.37 68.21 149.37 273.7 93.45 302.8" style="fill: #fcc221;"/>
    <polygon points="187.76 113.24 187.76 245.92 243.68 216.82 243.68 82.54 187.76 113.24" style="fill: #fcc221;"/>
    <polygon points="55.92 11.33 0 42.2 0 245.92 55.92 216.82 55.92 11.33" style="fill: #fcc221;"/>
    <polygon points="70.2 93.81 149.25 49.26 149.92 0 70.2 46.04 70.2 93.81" style="fill: #fcc221;"/>
    <polygon points="187.73 94.38 243.83 62.07 243.83 12.8 187.73 49.18 187.73 94.38" style="fill: #fcc221;"/>
  </g>
  <g>
    <g>
      <path d="M1010.79,234.16v-81.74c0-5.53-1.86-10.22-5.59-14.08-3.73-3.85-8.29-5.78-13.71-5.78h-34.53v101.6h-22.63v-101.6h-31.85c-5.39,0-9.94,1.93-13.65,5.78-3.71,3.86-5.56,8.55-5.56,14.08v81.74h-22.63v-81.74c0-12.58,3.98-23.01,11.95-31.31,7.96-8.3,17.98-12.45,30.05-12.45h88.78c12.07,0,22.09,4.44,30.05,13.33,7.96,8.89,11.95,19.62,11.95,32.19v79.98h-22.63Z" style="fill: #fff;"/>
      <path d="M1161.23,234.05h-53.57c-11.91,0-21.67-4.26-29.3-12.8-7.63-8.54-11.44-19.08-11.44-31.63v-39.16c0-12.72,3.77-23.09,11.32-31.12s17.35-12.05,29.42-12.05h52.56c11.9,0,21.67,4.06,29.3,12.17,7.63,8.12,11.44,18.45,11.44,31v39.16c0,12.05-3.52,22.34-10.56,30.88-7.54,9.04-17.27,13.55-29.17,13.55Zm17.1-80.87c0-5.83-1.65-10.95-4.93-15.37-3.29-4.42-7.63-6.62-13.03-6.62h-52.86c-5.4,0-9.74,2.21-13.03,6.62-3.29,4.42-4.93,9.54-4.93,15.37v35.24c0,5.83,1.64,10.92,4.93,15.25,3.29,4.33,7.63,6.5,13.03,6.5h52.86c5.39,0,9.74-2.17,13.03-6.5,3.29-4.33,4.93-9.42,4.93-15.25v-35.24Z" style="fill: #fff;"/>
      <path d="M1272.66,233.57c-10.9,0-19.91-4.28-27.04-12.83-7.13-8.55-10.69-19.11-10.69-31.69V65.32h21.12v42.25h32.69v23.89h-32.69v56.41c0,5.85,1.55,10.95,4.65,15.29,3.1,4.35,7.08,6.52,11.95,6.52h16.85v23.89h-16.85Z" style="fill: #fff;"/>
      <g>
        <rect x="1322.94" y="75.87" width="23.89" height="23.39" style="fill: #fcc221;"/>
        <rect x="1322.94" y="110.33" width="23.89" height="123.99" style="fill: #fff;"/>
      </g>
      <path d="M1472.75,232.9h-53.57c-11.91,0-21.67-4.26-29.3-12.8-7.63-8.54-11.44-19.08-11.44-31.63v-39.16c0-12.72,3.77-23.09,11.32-31.12s17.35-12.05,29.42-12.05h52.56c11.9,0,21.67,4.06,29.3,12.17,7.63,8.12,11.44,18.45,11.44,31v39.16c0,12.05-3.52,22.34-10.56,30.88-7.54,9.04-17.27,13.55-29.17,13.55Zm17.1-80.87c0-5.83-1.65-10.95-4.93-15.37-3.29-4.42-7.63-6.62-13.03-6.62h-52.86c-5.4,0-9.74,2.21-13.03,6.62-3.29,4.42-4.93,9.54-4.93,15.37v35.24c0,5.83,1.64,10.92,4.93,15.25,3.29,4.33,7.63,6.5,13.03,6.5h52.86c5.4,0,9.74-2.17,13.03-6.5,3.29-4.33,4.93-9.42,4.93-15.25v-35.24Z" style="fill: #fff;"/>
      <path d="M1657.65,233.65v-81.74c0-5.53-1.8-10.22-5.41-14.08-3.61-3.85-8.09-5.78-13.46-5.78h-51.05c-5.37,0-9.85,1.93-13.46,5.78-3.61,3.86-5.41,8.55-5.41,14.08v81.74h-22.63v-81.74c0-12.58,3.94-23.01,11.82-31.31,7.88-8.3,17.77-12.45,29.68-12.45h51.05c11.9,0,21.79,4.44,29.68,13.33,7.88,8.89,11.82,19.62,11.82,32.19v79.98h-22.63Z" style="fill: #fff;"/>
      <path d="M1721.27,234.92l-6.95,2.57v-24.96l99.83-80.53h-99.83v-24.44h141.25v22.1l-98.95,80.82h98.95v24.44h-134.3Z" style="fill: #fff;"/>
    </g>
    <g>
      <path d="M547.91,233.49v-81.74c0-5.53-1.86-10.22-5.59-14.08-3.73-3.85-8.29-5.78-13.71-5.78h-34.53v101.6h-22.63v-101.6h-31.85c-5.39,0-9.94,1.93-13.65,5.78-3.71,3.86-5.56,8.55-5.56,14.08v81.74h-22.63v-81.74c0-12.58,3.98-23.01,11.95-31.31,7.96-8.3,17.98-12.45,30.05-12.45h88.78c12.07,0,22.09,4.44,30.05,13.33,7.96,8.89,11.95,19.62,11.95,32.19v79.98h-22.63Z" style="fill: #fff;"/>
      <g>
        <rect x="603.9" y="76.14" width="23.89" height="23.39" style="fill: #fcc221;"/>
        <rect x="603.9" y="110.6" width="23.89" height="123.99" style="fill: #fff;"/>
      </g>
      <g>
        <rect x="772.74" y="76.18" width="23.89" height="23.39" style="fill: #fcc221;"/>
        <rect x="772.74" y="110.63" width="23.89" height="123.99" style="fill: #fff;"/>
      </g>
      <rect x="663.8" y="66.87" width="23.89" height="168.11" style="fill: #fff;"/>
      <rect x="719.21" y="66.69" width="23.89" height="168.11" style="fill: #fff;"/>
    </g>
  </g>
</svg>